<svg width="304" height="24" viewBox="0 0 304 24" fill="none" xmlns="http://www.w3.org/2000/svg">
<path d="M303.901 6.26361H303.401C303.201 4.69766 303.101 4.20829 300.702 4.20829H296.903V18.7913C296.903 21.8253 297.203 22.2168 299.502 22.2168V22.7062H292.605V22.2168C294.304 22.2168 294.504 21.4338 294.504 19.3785V4.20829H291.205C288.506 4.20829 288.006 4.30617 287.906 6.26361H287.406L287.306 2.93595C287.306 2.93595 290.006 3.1317 291.205 3.1317H300.302C301.902 3.1317 303.201 3.1317 304.001 3.03383L303.901 6.26361ZM283.608 19.1828L283.508 22.6083H270.112V22.1189C271.512 22.1189 272.111 21.7274 272.111 19.2806V5.28489C272.111 4.01255 271.212 3.62106 269.712 3.62106V3.03383C270.812 3.1317 272.411 3.1317 273.811 3.1317C274.911 3.1317 277.71 3.1317 279.509 3.1317C280.109 3.1317 282.808 3.03383 282.808 3.03383L282.708 6.36149H282.208C282.108 4.30617 280.809 4.11042 278.409 4.11042C278.409 4.11042 275.41 4.11042 274.511 4.11042C274.211 4.11042 274.211 4.20829 274.211 4.40404V11.4508C274.211 11.5487 274.211 11.7445 274.411 11.7445H279.109C280.009 11.7445 280.309 11.4508 280.509 10.6679H281.009V14.7785H280.509C280.409 13.8977 280.409 13.0168 278.909 12.8211C278.109 12.7232 274.811 12.7232 274.411 12.7232C274.311 12.7232 274.211 12.8211 274.211 12.9189V20.3572C274.311 21.7274 274.311 21.7274 277.71 21.7274C278.809 21.7274 281.208 21.7274 281.808 21.4338C282.608 21.0423 282.908 20.3572 282.908 19.1828H283.608ZM256.317 13.0168C258.716 13.0168 260.315 11.2551 260.315 8.51468C260.315 5.57851 258.516 4.01255 255.717 4.01255C254.217 4.01255 253.718 4.01255 253.718 4.50191V12.5274C253.718 12.8211 253.718 12.9189 254.217 13.0168C254.317 12.8211 255.617 13.0168 256.317 13.0168ZM267.013 22.7062H264.714C261.915 22.7062 260.915 20.8466 259.416 18.4977C258.116 16.5402 256.816 13.7998 255.117 13.7019L253.917 13.604C253.817 13.604 253.718 13.604 253.718 13.7998V18.8891C253.718 21.9232 254.317 22.1189 256.317 22.1189V22.6083H249.519V22.1189C251.118 22.0211 251.418 21.8253 251.418 18.8891V5.28489C251.418 3.91468 250.519 3.52319 249.119 3.52319V3.03383H256.117C259.915 3.03383 262.415 4.69766 262.415 7.82957C262.415 10.3743 260.215 12.5274 257.916 13.3104C259.915 13.9955 261.515 18.4977 263.214 20.1615C264.914 21.9232 265.614 22.1189 267.013 22.1189V22.7062ZM244.92 19.0849C243.921 21.4338 241.621 22.9998 237.923 22.9998C231.625 22.9998 227.726 18.7913 227.726 12.9189C227.726 7.43808 231.625 2.74021 238.223 2.74021C240.222 2.74021 242.021 3.1317 244.121 3.91468C244.421 4.01255 244.521 4.11042 244.521 4.40404L244.321 8.31893H243.921C243.921 7.24234 243.621 5.87212 242.721 5.18702C241.522 4.20829 240.122 3.71893 237.723 3.71893C232.425 3.71893 230.025 7.63383 230.025 12.4296C230.025 17.2253 232.624 22.0211 238.123 22.0211C241.222 22.0211 243.221 20.8466 244.221 18.987C244.421 18.5955 244.521 18.4977 244.82 18.5955C245.12 18.4977 245.12 18.6934 244.92 19.0849ZM223.527 19.1828L223.427 22.6083H210.032V22.1189C211.431 22.1189 212.031 21.7274 212.031 19.2806V5.28489C212.031 4.01255 211.132 3.62106 209.632 3.62106V3.03383C210.732 3.1317 212.331 3.1317 213.731 3.1317C214.83 3.1317 217.629 3.1317 219.429 3.1317C220.029 3.1317 222.728 3.03383 222.728 3.03383L222.628 6.36149H222.128C222.028 4.30617 220.728 4.11042 218.329 4.11042C218.329 4.11042 215.33 4.11042 214.43 4.11042C214.131 4.11042 214.131 4.20829 214.131 4.40404V11.4508C214.131 11.5487 214.131 11.7445 214.33 11.7445H219.029C219.929 11.7445 220.229 11.4508 220.428 10.6679H220.928V14.7785H220.428C220.329 13.8977 220.328 13.0168 218.829 12.8211C218.029 12.7232 214.73 12.7232 214.33 12.7232C214.23 12.7232 214.131 12.8211 214.131 12.9189V20.3572C214.23 21.7274 214.23 21.7274 217.629 21.7274C218.729 21.7274 221.128 21.7274 221.728 21.4338C222.528 21.0423 222.828 20.3572 222.828 19.1828H223.527ZM192.238 21.8253V17.8125H192.838C193.037 21.2381 195.437 22.2168 198.136 22.2168C201.335 22.2168 203.034 20.1615 203.034 18.1062C203.034 15.7572 201.435 14.2891 198.236 12.2338C193.837 9.4934 192.838 7.43808 192.838 5.48064C192.838 2.34872 195.237 0.0976562 199.435 0.0976562C201.635 0.0976562 204.234 0.978507 204.234 0.978507V4.30617H203.634C203.534 3.71893 203.434 3.1317 203.034 2.54446C202.834 2.15298 201.835 0.880635 198.736 0.880635C196.236 0.880635 194.437 2.44659 194.437 4.59978C194.437 6.6551 196.036 7.92744 199.635 10.2764C203.134 12.5274 204.834 14.7785 204.834 17.0296C204.834 22.7062 199.036 23.0977 197.536 23.0977C194.137 22.9998 192.238 21.8253 192.238 21.8253ZM169.345 22.9998C167.746 22.9998 166.246 22.9019 164.547 21.9232V18.204H165.047C165.147 21.0423 167.146 22.1189 169.545 22.1189C172.244 22.1189 173.744 20.3572 173.744 18.7913C173.744 16.736 172.444 15.4636 169.545 13.7019C165.746 11.353 164.747 9.59127 164.747 7.63383C164.747 4.8934 166.946 2.83808 170.345 2.83808C172.244 2.83808 173.544 3.1317 174.743 3.62106V6.75298H174.244C174.144 6.16574 174.044 5.67638 173.744 5.08915C173.544 4.79553 172.744 3.71893 170.045 3.71893C167.946 3.71893 166.446 4.99127 166.446 6.85085C166.446 8.61255 167.846 9.68915 170.945 11.7445C174.044 13.7019 175.543 15.6594 175.543 17.7147C175.643 20.7487 173.144 22.9998 169.345 22.9998ZM159.948 3.22957C159.948 4.99127 158.649 6.16574 156.749 6.45936V6.06787C158.249 5.87212 158.949 4.8934 158.949 4.20829C158.949 3.62106 158.649 3.1317 157.749 2.74021C157.149 2.44659 156.849 2.25085 156.849 1.66361C156.849 1.07638 157.349 0.68489 157.949 0.68489C158.949 0.68489 159.948 1.56574 159.948 3.22957ZM149.052 13.8977L146.553 6.85085C146.453 6.6551 146.453 6.55723 146.353 6.55723C146.253 6.55723 146.253 6.6551 146.153 6.85085L143.754 13.7998V13.8977C143.754 13.9955 143.854 13.9955 143.854 13.9955L149.052 13.8977C149.052 13.9955 149.052 13.9955 149.052 13.8977ZM150.551 22.2168C151.551 22.1189 151.951 21.9232 151.951 21.5317C151.951 21.2381 151.951 21.1402 151.651 20.4551L149.552 15.0721C149.452 14.9743 149.452 14.8764 149.352 14.8764H143.654C143.554 14.8764 143.454 14.9743 143.354 15.0721L141.954 19.2806C141.754 19.77 141.454 20.8466 141.454 21.336C141.454 21.9232 142.054 22.1189 143.054 22.1189V22.6083H137.256L137.356 22.1189C139.055 22.0211 139.655 21.336 140.255 19.77L146.353 3.52319C146.653 2.64234 146.753 2.64234 146.953 2.64234C147.053 2.64234 147.153 2.74021 147.552 3.52319L153.85 19.5743C154.45 21.1402 155.15 22.1189 156.949 22.1189L157.049 22.6083H150.751V22.2168H150.551ZM133.357 22.7062H126.459V22.2168H126.559C128.459 22.2168 128.459 21.0423 128.459 18.5955V6.26361C128.459 3.91468 128.159 3.52319 126.359 3.42532V3.03383H132.657V3.52319C130.658 3.52319 130.658 4.01255 130.658 7.14446V18.6934C130.658 21.6296 130.858 22.2168 133.257 22.2168V22.7062H133.357ZM111.464 13.0168C113.864 13.0168 115.463 11.2551 115.463 8.51468C115.463 5.57851 113.664 4.01255 110.865 4.01255C109.365 4.01255 108.865 4.01255 108.865 4.50191V12.5274C108.865 12.8211 108.865 12.9189 109.365 13.0168C109.465 12.8211 110.765 13.0168 111.464 13.0168ZM122.261 22.7062H119.962C117.162 22.7062 116.163 20.8466 114.663 18.4977C113.364 16.5402 112.064 13.7998 110.365 13.7019L109.165 13.604C109.065 13.604 108.965 13.604 108.965 13.7998V18.8891C108.965 21.9232 109.565 22.1189 111.564 22.1189V22.6083H104.767V22.1189C106.366 22.0211 106.666 21.8253 106.666 18.8891V5.28489C106.666 3.91468 105.766 3.52319 104.367 3.52319V3.03383H111.364C115.163 3.03383 117.662 4.69766 117.662 7.82957C117.662 10.3743 115.463 12.5274 113.164 13.3104C115.163 13.9955 116.763 18.4977 118.462 20.1615C120.161 21.9232 120.861 22.1189 122.261 22.1189V22.7062ZM89.3716 3.62106C84.973 3.62106 81.6741 6.45936 81.6741 12.136C81.6741 18.1062 85.3729 22.0211 90.1713 22.0211C92.5705 22.0211 97.4689 20.6508 97.4689 13.2125C97.4689 6.94872 93.5702 3.62106 89.3716 3.62106ZM89.3716 22.9998C82.174 22.9998 79.1749 17.5189 79.1749 12.8211C79.1749 8.61255 82.2739 2.74021 89.5715 2.74021C95.5695 2.74021 99.9681 6.36149 99.9681 12.4296C99.9681 18.204 95.7695 22.9998 89.3716 22.9998ZM75.7761 6.26361H75.2762C75.0763 4.69766 74.9763 4.20829 72.5771 4.20829H68.7784V18.7913C68.7784 21.8253 69.0783 22.2168 71.3775 22.2168V22.7062H64.4798V22.2168C66.1792 22.2168 66.3791 21.4338 66.3791 19.3785V4.20829H63.0802C60.3811 4.20829 59.8813 4.30617 59.7813 6.26361H59.2815L59.1815 2.93595C59.1815 2.93595 61.8806 3.1317 63.0802 3.1317H72.1772C73.7767 3.1317 75.0763 3.1317 75.876 3.03383L75.7761 6.26361ZM54.8829 19.0849C53.8833 21.4338 51.584 22.9998 47.8852 22.9998C41.5873 22.9998 37.6886 18.7913 37.6886 12.9189C37.6886 7.43808 41.5873 2.74021 48.1851 2.74021C50.1845 2.74021 51.9839 3.1317 54.0832 3.91468C54.3831 4.01255 54.4831 4.11042 54.4831 4.40404L54.2831 8.31893H53.9832C53.9832 7.24234 53.6833 5.87212 52.7836 5.18702C51.584 4.20829 50.1845 3.71893 47.7853 3.71893C42.487 3.71893 40.0878 7.63383 40.0878 12.4296C40.0878 17.2253 42.6869 22.0211 48.1851 22.0211C51.2841 22.0211 53.2834 20.8466 54.2831 18.987C54.4831 18.5955 54.583 18.4977 54.8829 18.5955C55.0829 18.4977 55.0829 18.6934 54.8829 19.0849ZM33.5899 22.7062H26.6922V22.2168H26.7922C28.6915 22.2168 28.6915 21.0423 28.6915 18.5955V6.26361C28.6915 3.91468 28.3916 3.52319 26.5922 3.42532V3.03383H32.9901V3.52319C30.9908 3.52319 30.9908 4.01255 30.9908 7.14446V18.6934C30.9908 21.6296 31.1907 22.2168 33.5899 22.2168V22.7062ZM3.09996 2.74021C2.40019 0.978507 1.60045 0.587018 0.000976562 0.587018V0.195529H6.89871V0.587018C5.6991 0.68489 5.29923 0.880635 5.29923 1.27212C5.29923 1.95723 5.59913 2.44659 12.197 19.3785L18.6948 3.32744C18.9947 2.54446 19.2946 1.76149 19.2946 1.17425C19.2946 0.489146 18.3949 0.489146 17.6952 0.489146V0.195529H23.4932L23.3933 0.68489C21.6938 0.782763 21.194 1.27212 20.4942 2.83808L11.997 22.4125C11.7971 22.804 11.6971 22.9019 11.5972 22.9019C11.3972 22.9019 11.2973 22.7062 11.1973 22.5104L3.09996 2.74021Z" fill="black"/>
</svg>
